# xmcd
#
# Track frame offsets: 
#        182
#        15595
#        26760
#        44420
#        64007
#        79747
#        96392
#        113335
#        129100
#        145345
#        162247
#        181337
#        198560
#        212432
#        231525
#        250152
#        267117
#        281072
#        296450
#
# Disc length: 4136 seconds
#
# Revision: 6
# Processed by: cddbd v1.5.2PL0 Copyright (c) Steve Scherf et al.
# Submitted via: ExactAudioCopy v0.99pb5
#
DISCID=0e102613
DTITLE=Various Artist - That's Country My Friend!
DYEAR=1996
DGENRE=Country
TTITLE0=Charlie Major - (I Do It) For The Money
TTITLE1=Alan Jackson - Tall, Tall Trees
TTITLE2=Dwight Yokam - Nothing
TTITLE3=Travis Tritt - Put Some Drive In Your Country
TTITLE4=Linda Davis - Some Things Are Meant To Be
TTITLE5=Alabama - It Works
TTITLE6=Martina McBride - Wild Angels
TTITLE7=Brooks and Dunn - My Maria
TTITLE8=Vince Gill - Never Alone
TTITLE9=Restless Heart - When She Cries
TTITLE10=Reba McEntire - Ring On Her Finger Time On Her Hands
TTITLE11=The Mavericks - Here Comes The Rain
TTITLE12=Jill Morris - Limbo
TTITLE13=Lee Roy Parnell - Heart's Desire
TTITLE14=Shania Twain - Any Man Of Mine
TTITLE15=Blackhawk - I'm Not Strong Enough To Say No
TTITLE16=Prairie Oyster - Only One Moon
TTITLE17=Tim McGraw - I Like It, I Love It
TTITLE18=Lyle Lovett - You Can't Resist It
EXTD=(C) 1996 BMG Ariola
EXTT0=
EXTT1=
EXTT2=
EXTT3=
EXTT4=
EXTT5=
EXTT6=
EXTT7=
EXTT8=
EXTT9=
EXTT10=
EXTT11=
EXTT12=
EXTT13=
EXTT14=
EXTT15=
EXTT16=
EXTT17=
EXTT18=
PLAYORDER=
